<svg width="90" height="79" viewBox="0 0 90 79" fill="none" xmlns="http://www.w3.org/2000/svg">
<path d="M73.125 41.9688H16.875C15.3832 41.9688 13.9524 42.489 12.8975 43.4149C11.8426 44.3409 11.25 45.5967 11.25 46.9062V61.7188C11.25 63.0283 11.8426 64.2841 12.8975 65.2101C13.9524 66.1361 15.3832 66.6562 16.875 66.6562H73.125C74.6168 66.6562 76.0476 66.1361 77.1025 65.2101C78.1574 64.2841 78.75 63.0283 78.75 61.7188V46.9062C78.75 45.5967 78.1574 44.3409 77.1025 43.4149C76.0476 42.489 74.6168 41.9688 73.125 41.9688ZM73.125 61.7188H16.875V46.9062H73.125V61.7188ZM73.125 12.3438H16.875C15.3832 12.3438 13.9524 12.8639 12.8975 13.7899C11.8426 14.7159 11.25 15.9717 11.25 17.2812V32.0938C11.25 33.4033 11.8426 34.6591 12.8975 35.5851C13.9524 36.511 15.3832 37.0312 16.875 37.0312H73.125C74.6168 37.0312 76.0476 36.511 77.1025 35.5851C78.1574 34.6591 78.75 33.4033 78.75 32.0938V17.2812C78.75 15.9717 78.1574 14.7159 77.1025 13.7899C76.0476 12.8639 74.6168 12.3438 73.125 12.3438ZM73.125 32.0938H16.875V17.2812H73.125V32.0938ZM67.5 24.6875C67.5 25.4199 67.2526 26.1359 66.789 26.7448C66.3254 27.3538 65.6666 27.8285 64.8957 28.1087C64.1248 28.389 63.2766 28.4624 62.4582 28.3195C61.6399 28.1766 60.8881 27.8239 60.2981 27.306C59.7081 26.7881 59.3063 26.1283 59.1436 25.4099C58.9808 24.6916 59.0643 23.947 59.3836 23.2704C59.7029 22.5937 60.2437 22.0154 60.9374 21.6085C61.6312 21.2016 62.4469 20.9844 63.2812 20.9844C64.4001 20.9844 65.4732 21.3745 66.2644 22.069C67.0555 22.7635 67.5 23.7054 67.5 24.6875ZM67.5 54.3125C67.5 55.0449 67.2526 55.7609 66.789 56.3698C66.3254 56.9788 65.6666 57.4535 64.8957 57.7337C64.1248 58.014 63.2766 58.0874 62.4582 57.9445C61.6399 57.8016 60.8881 57.4489 60.2981 56.931C59.7081 56.4131 59.3063 55.7533 59.1436 55.0349C58.9808 54.3166 59.0643 53.572 59.3836 52.8954C59.7029 52.2187 60.2437 51.6404 60.9374 51.2335C61.6312 50.8266 62.4469 50.6094 63.2812 50.6094C64.4001 50.6094 65.4732 50.9995 66.2644 51.694C67.0555 52.3885 67.5 53.3304 67.5 54.3125Z" fill="#7280FF"/>
</svg>
