<svg width="67" height="70" viewBox="0 0 67 70" fill="none" xmlns="http://www.w3.org/2000/svg">
<path d="M32.6702 69.6118C41.8088 68.8503 50.4585 64.4989 56.7341 57.5059L56.9808 57.2315C63.2283 50.1452 66.5622 41.0038 66.258 31.7935C65.9539 22.5831 62.0364 14.0479 55.3565 8.04226C44.8734 -1.38387 29.9543 -2.47356 16.4078 5.18292C14.8806 6.04716 13.5638 7.257 12.5676 8.71099C11.5715 10.165 10.925 11.8207 10.6826 13.5393C10.4401 15.258 10.6087 16.9894 11.1742 18.5885C11.7397 20.1875 12.6855 21.6075 13.9325 22.7294C14.967 23.6596 15.5705 24.984 15.6103 26.4111C15.65 27.8382 15.1227 29.2512 14.1444 30.3392L3.49082 42.1874C1.80876 44.0409 0.779771 46.3859 0.574675 48.8331C0.369584 51.2804 1.00073 53.6826 2.36333 55.6411C3.87046 57.8254 5.63354 59.8138 7.61725 61.5663C10.9723 64.5358 14.9142 66.7759 19.2147 68.157C23.5152 69.5381 28.0887 70.0326 32.6702 69.6118ZM6.82723 52.4026C6.14997 51.4252 5.83674 50.2277 5.93934 49.008C6.04195 47.7883 6.55423 46.6195 7.39151 45.6948L18.0451 33.8466C20.0017 31.6706 21.0563 28.8446 20.9768 25.9904C20.8973 23.1361 19.6903 20.4875 17.6212 18.627C16.999 18.0659 16.5273 17.3561 16.2454 16.5571C15.9635 15.7581 15.8797 14.8932 16.001 14.0347C16.1223 13.1763 16.4452 12.3492 16.9427 11.6228C17.4401 10.8964 18.0977 10.2918 18.8602 9.85963C30.3193 3.3773 42.8912 4.25301 51.6678 12.1446C57.3197 17.2262 60.6346 24.448 60.8921 32.2411C61.1497 40.0342 58.3291 47.769 53.0432 53.7651L52.8357 53.9959C47.4693 59.92 40.1047 63.6003 32.3302 64.2433C24.5557 64.8862 16.9943 62.4402 11.2766 57.4328C9.59421 55.9476 8.09809 54.2632 6.81802 52.4129L6.82723 52.4026ZM41.2903 49.1836C40.7117 48.6634 40.3083 47.9743 40.1312 47.2036C39.9541 46.433 40.0112 45.6153 40.2953 44.854C40.5794 44.0927 41.0778 43.4219 41.7273 42.9266C42.3768 42.4312 43.1484 42.1335 43.9445 42.0711C44.7405 42.0087 45.5253 42.1844 46.1995 42.576C46.8738 42.9675 47.4072 43.5574 47.7324 44.2709C48.0576 44.9845 48.1599 45.7897 48.0264 46.5847C47.8929 47.3797 47.5296 48.1288 46.9824 48.7374C46.2487 49.5534 45.2368 50.0588 44.1693 50.1425C43.1018 50.2262 42.0662 49.8813 41.2903 49.1836ZM45.5834 32.641C45.0047 32.1207 44.6014 31.4316 44.4243 30.661C44.2472 29.8903 44.3043 29.0726 44.5884 28.3113C44.8725 27.55 45.3708 26.8793 46.0203 26.3839C46.6699 25.8886 47.4415 25.5909 48.2375 25.5285C49.0336 25.4661 49.8183 25.6417 50.4926 26.0333C51.1668 26.4249 51.7003 27.0147 52.0254 27.7282C52.3506 28.4418 52.4529 29.247 52.3194 30.042C52.1859 30.837 51.8226 31.5862 51.2754 32.1947C50.5417 33.0107 49.5298 33.5162 48.4623 33.5999C47.3948 33.6836 46.3592 33.3386 45.5834 32.641ZM31.9309 20.3651C31.3523 19.8448 30.949 19.1558 30.7718 18.3851C30.5947 17.6144 30.6518 16.7967 30.9359 16.0354C31.22 15.2741 31.7184 14.6034 32.3679 14.108C33.0175 13.6127 33.789 13.315 34.5851 13.2526C35.3812 13.1902 36.1659 13.3659 36.8402 13.7574C37.5144 14.149 38.0478 14.7388 38.373 15.4524C38.6982 16.1659 38.8005 16.9711 38.667 17.7661C38.5335 18.5612 38.1702 19.3103 37.623 19.9188C36.8893 20.7348 35.8774 21.2403 34.8099 21.324C33.7424 21.4077 32.7068 21.0627 31.9309 20.3651ZM25.2952 55.2041C24.7166 54.6838 24.3132 53.9948 24.1361 53.2241C23.959 52.4535 24.0161 51.6358 24.3002 50.8744C24.5843 50.1131 25.0826 49.4424 25.7322 48.9471C26.3817 48.4517 27.1533 48.154 27.9494 48.0916C28.7454 48.0292 29.5302 48.2049 30.2044 48.5965C30.8787 48.988 31.4121 49.5779 31.7373 50.2914C32.0625 51.0049 32.1648 51.8101 32.0313 52.6052C31.8978 53.4002 31.5345 54.1493 30.9873 54.7579C30.2535 55.5739 29.2416 56.0793 28.1742 56.163C27.1067 56.2467 26.0711 55.9018 25.2952 55.2041Z" fill="#7280FF"/>
</svg>
